<svg viewBox="0 0 1376 390" fill="none" xmlns="http://www.w3.org/2000/svg">
  <path d="M370.859 290.052C364.387 290.052 361.15 293.552 361.15 300.552V305.745H378.536V314.663H361.376V365.579H350.538V314.663H340.378V305.745H350.538V300.439C350.538 294.493 352.269 289.789 355.731 286.327C359.193 282.865 364.048 281.134 370.295 281.134C372.703 281.134 374.961 281.435 377.068 282.037C379.176 282.639 380.982 283.505 382.487 284.633L379.213 292.875C376.73 290.993 373.945 290.052 370.859 290.052ZM410.116 366.256C404.17 366.256 398.826 364.939 394.085 362.305C389.343 359.671 385.618 356.058 382.908 351.467C380.274 346.801 378.957 341.532 378.957 335.662C378.957 329.791 380.274 324.561 382.908 319.97C385.618 315.303 389.343 311.691 394.085 309.132C398.826 306.497 404.17 305.18 410.116 305.18C416.062 305.18 421.368 306.497 426.034 309.132C430.775 311.691 434.463 315.303 437.098 319.97C439.807 324.561 441.162 329.791 441.162 335.662C441.162 341.532 439.807 346.801 437.098 351.467C434.463 356.058 430.775 359.671 426.034 362.305C421.368 364.939 416.062 366.256 410.116 366.256ZM410.116 356.773C413.954 356.773 417.379 355.908 420.389 354.177C423.475 352.37 425.883 349.887 427.614 346.726C429.345 343.489 430.211 339.801 430.211 335.662C430.211 331.522 429.345 327.872 427.614 324.711C425.883 321.475 423.475 318.991 420.389 317.26C417.379 315.529 413.954 314.663 410.116 314.663C406.277 314.663 402.815 315.529 399.729 317.26C396.719 318.991 394.31 321.475 392.504 324.711C390.773 327.872 389.908 331.522 389.908 335.662C389.908 339.801 390.773 343.489 392.504 346.726C394.31 349.887 396.719 352.37 399.729 354.177C402.815 355.908 406.277 356.773 410.116 356.773ZM463.15 315.792C465.031 312.33 467.816 309.696 471.504 307.89C475.192 306.083 479.67 305.18 484.938 305.18V315.68C484.336 315.604 483.508 315.567 482.455 315.567C476.584 315.567 471.956 317.335 468.569 320.873C465.257 324.335 463.601 329.302 463.601 335.775V365.579H452.763V305.745H463.15V315.792ZM524.193 286.553H557.497C565.851 286.553 573.265 288.208 579.737 291.52C586.21 294.832 591.215 299.498 594.752 305.519C598.365 311.465 600.171 318.314 600.171 326.066C600.171 333.818 598.365 340.705 594.752 346.726C591.215 352.671 586.21 357.3 579.737 360.612C573.265 363.923 565.851 365.579 557.497 365.579H524.193V286.553ZM556.82 355.757C563.217 355.757 568.824 354.515 573.641 352.032C578.533 349.548 582.296 346.086 584.931 341.645C587.565 337.13 588.882 331.936 588.882 326.066C588.882 320.195 587.565 315.04 584.931 310.599C582.296 306.083 578.533 302.584 573.641 300.1C568.824 297.616 563.217 296.375 556.82 296.375H535.483V355.757H556.82ZM666.573 336.001C666.573 336.828 666.498 337.92 666.347 339.275H617.802C618.48 344.543 620.775 348.795 624.689 352.032C628.678 355.193 633.608 356.773 639.478 356.773C646.628 356.773 652.386 354.365 656.751 349.548L662.734 356.547C660.025 359.708 656.638 362.117 652.574 363.773C648.585 365.428 644.107 366.256 639.139 366.256C632.817 366.256 627.21 364.977 622.318 362.418C617.426 359.784 613.625 356.133 610.916 351.467C608.282 346.801 606.964 341.532 606.964 335.662C606.964 329.867 608.244 324.636 610.803 319.97C613.437 315.303 617.012 311.691 621.528 309.132C626.119 306.497 631.274 305.18 636.994 305.18C642.714 305.18 647.795 306.497 652.235 309.132C656.751 311.691 660.251 315.303 662.734 319.97C665.293 324.636 666.573 329.98 666.573 336.001ZM636.994 314.325C631.801 314.325 627.436 315.905 623.899 319.066C620.437 322.227 618.404 326.367 617.802 331.485H656.187C655.584 326.442 653.515 322.34 649.977 319.179C646.515 315.943 642.188 314.325 636.994 314.325ZM730.081 305.745L703.889 365.579H692.825L666.634 305.745H677.923L698.47 353.725L719.468 305.745H730.081ZM789.231 336.001C789.231 336.828 789.156 337.92 789.005 339.275H740.461C741.138 344.543 743.434 348.795 747.347 352.032C751.336 355.193 756.266 356.773 762.137 356.773C769.287 356.773 775.044 354.365 779.409 349.548L785.393 356.547C782.683 359.708 779.297 362.117 775.232 363.773C771.243 365.428 766.765 366.256 761.798 366.256C755.476 366.256 749.869 364.977 744.977 362.418C740.084 359.784 736.284 356.133 733.574 351.467C730.94 346.801 729.623 341.532 729.623 335.662C729.623 329.867 730.902 324.636 733.461 319.97C736.095 315.303 739.67 311.691 744.186 309.132C748.777 306.497 753.933 305.18 759.653 305.18C765.373 305.18 770.453 306.497 774.894 309.132C779.409 311.691 782.909 315.303 785.393 319.97C787.952 324.636 789.231 329.98 789.231 336.001ZM759.653 314.325C754.46 314.325 750.094 315.905 746.557 319.066C743.095 322.227 741.063 326.367 740.461 331.485H778.845C778.243 326.442 776.173 322.34 772.636 319.179C769.174 315.943 764.846 314.325 759.653 314.325ZM800.894 281.811H811.732V365.579H800.894V281.811ZM854.665 366.256C848.719 366.256 843.376 364.939 838.634 362.305C833.893 359.671 830.167 356.058 827.458 351.467C824.823 346.801 823.506 341.532 823.506 335.662C823.506 329.791 824.823 324.561 827.458 319.97C830.167 315.303 833.893 311.691 838.634 309.132C843.376 306.497 848.719 305.18 854.665 305.18C860.611 305.18 865.917 306.497 870.583 309.132C875.325 311.691 879.013 315.303 881.647 319.97C884.357 324.561 885.711 329.791 885.711 335.662C885.711 341.532 884.357 346.801 881.647 351.467C879.013 356.058 875.325 359.671 870.583 362.305C865.917 364.939 860.611 366.256 854.665 366.256ZM854.665 356.773C858.504 356.773 861.928 355.908 864.939 354.177C868.024 352.37 870.433 349.887 872.164 346.726C873.895 343.489 874.76 339.801 874.76 335.662C874.76 331.522 873.895 327.872 872.164 324.711C870.433 321.475 868.024 318.991 864.939 317.26C861.928 315.529 858.504 314.663 854.665 314.663C850.827 314.663 847.365 315.529 844.279 317.26C841.268 318.991 838.86 321.475 837.054 324.711C835.323 327.872 834.457 331.522 834.457 335.662C834.457 339.801 835.323 343.489 837.054 346.726C838.86 349.887 841.268 352.37 844.279 354.177C847.365 355.908 850.827 356.773 854.665 356.773ZM929.036 305.18C934.832 305.18 940.025 306.46 944.616 309.019C949.207 311.578 952.782 315.153 955.341 319.744C957.975 324.335 959.292 329.641 959.292 335.662C959.292 341.683 957.975 347.027 955.341 351.693C952.782 356.284 949.207 359.859 944.616 362.418C940.025 364.977 934.832 366.256 929.036 366.256C924.746 366.256 920.795 365.428 917.182 363.773C913.645 362.117 910.635 359.708 908.151 356.547V387.481H897.313V305.745H907.699V315.228C910.108 311.916 913.156 309.433 916.844 307.777C920.532 306.046 924.596 305.18 929.036 305.18ZM928.133 356.773C931.972 356.773 935.396 355.908 938.407 354.177C941.492 352.37 943.901 349.887 945.632 346.726C947.438 343.489 948.341 339.801 948.341 335.662C948.341 331.522 947.438 327.872 945.632 324.711C943.901 321.475 941.492 318.991 938.407 317.26C935.396 315.529 931.972 314.663 928.133 314.663C924.37 314.663 920.946 315.567 917.86 317.373C914.849 319.104 912.441 321.55 910.635 324.711C908.903 327.872 908.038 331.522 908.038 335.662C908.038 339.801 908.903 343.489 910.635 346.726C912.366 349.887 914.774 352.37 917.86 354.177C920.946 355.908 924.37 356.773 928.133 356.773ZM1024.96 336.001C1024.96 336.828 1024.88 337.92 1024.73 339.275H976.186C976.863 344.543 979.159 348.795 983.072 352.032C987.061 355.193 991.991 356.773 997.862 356.773C1005.01 356.773 1010.77 354.365 1015.13 349.548L1021.12 356.547C1018.41 359.708 1015.02 362.117 1010.96 363.773C1006.97 365.428 1002.49 366.256 997.523 366.256C991.201 366.256 985.594 364.977 980.702 362.418C975.81 359.784 972.009 356.133 969.299 351.467C966.665 346.801 965.348 341.532 965.348 335.662C965.348 329.867 966.627 324.636 969.186 319.97C971.821 315.303 975.396 311.691 979.911 309.132C984.502 306.497 989.658 305.18 995.378 305.18C1001.1 305.18 1006.18 306.497 1010.62 309.132C1015.13 311.691 1018.63 315.303 1021.12 319.97C1023.68 324.636 1024.96 329.98 1024.96 336.001ZM995.378 314.325C990.185 314.325 985.82 315.905 982.282 319.066C978.82 322.227 976.788 326.367 976.186 331.485H1014.57C1013.97 326.442 1011.9 322.34 1008.36 319.179C1004.9 315.943 1000.57 314.325 995.378 314.325ZM1047.01 315.792C1048.89 312.33 1051.67 309.696 1055.36 307.89C1059.05 306.083 1063.53 305.18 1068.79 305.18V315.68C1068.19 315.604 1067.36 315.567 1066.31 315.567C1060.44 315.567 1055.81 317.335 1052.42 320.873C1049.11 324.335 1047.46 329.302 1047.46 335.775V365.579H1036.62V305.745H1047.01V315.792ZM1096.37 366.256C1091.47 366.256 1086.77 365.617 1082.25 364.337C1077.74 362.982 1074.2 361.289 1071.64 359.257L1076.16 350.677C1078.79 352.558 1081.99 354.064 1085.75 355.193C1089.52 356.322 1093.32 356.886 1097.16 356.886C1106.64 356.886 1111.38 354.177 1111.38 348.758C1111.38 346.951 1110.74 345.521 1109.46 344.468C1108.18 343.414 1106.56 342.661 1104.61 342.21C1102.73 341.683 1100.02 341.118 1096.48 340.516C1091.66 339.764 1087.71 338.898 1084.62 337.92C1081.61 336.941 1079.02 335.286 1076.83 332.952C1074.65 330.619 1073.56 327.345 1073.56 323.131C1073.56 317.712 1075.82 313.384 1080.33 310.148C1084.85 306.836 1090.91 305.18 1098.51 305.18C1102.5 305.18 1106.49 305.67 1110.48 306.648C1114.47 307.626 1117.74 308.943 1120.3 310.599L1115.67 319.179C1110.78 316.018 1105.02 314.438 1098.4 314.438C1093.81 314.438 1090.31 315.19 1087.9 316.696C1085.49 318.201 1084.29 320.195 1084.29 322.679C1084.29 324.636 1084.96 326.179 1086.32 327.308C1087.67 328.437 1089.33 329.265 1091.29 329.791C1093.32 330.318 1096.14 330.92 1099.75 331.598C1104.57 332.426 1108.45 333.329 1111.38 334.307C1114.39 335.21 1116.95 336.791 1119.06 339.049C1121.16 341.307 1122.22 344.468 1122.22 348.532C1122.22 353.951 1119.89 358.278 1115.22 361.515C1110.63 364.676 1104.34 366.256 1096.37 366.256Z" fill="white"/>
  <g clip-path="url(#clip0)">
  <path d="M339.312 101.483H357.081C359.759 101.483 362.193 103.191 362.923 105.631L394.08 189.55L425.236 105.631C426.21 103.191 428.644 101.483 431.078 101.483H448.116C452.011 101.483 454.689 105.387 453.228 109.046L407.467 223.459C406.493 225.899 404.059 227.362 401.625 227.362H386.047C383.37 227.362 381.179 225.899 380.205 223.459L334.444 109.046C332.74 105.387 335.418 101.483 339.312 101.483Z" fill="white"/>
  <path d="M457.609 164.179V163.935C457.609 128.318 485.601 99.2878 524.06 99.2878C562.519 99.2878 590.268 128.074 590.268 163.447V163.691C590.268 199.308 562.275 228.338 523.817 228.338C485.115 228.582 457.609 199.796 457.609 164.179ZM561.545 164.179V163.935C561.545 142.467 545.967 124.659 523.817 124.659C501.666 124.659 486.332 142.223 486.332 163.691V163.935C486.332 185.403 501.91 203.211 524.06 203.211C546.21 203.211 561.545 185.647 561.545 164.179Z" fill="white"/>
  <path d="M617.773 101.483H632.621C636.029 101.483 638.949 104.411 638.949 107.826V220.288C638.949 223.703 636.029 226.63 632.621 226.63H617.773C614.365 226.63 611.444 223.703 611.444 220.288V107.582C611.444 104.167 614.122 101.483 617.773 101.483Z" fill="white"/>
  <path d="M659.883 164.179V163.935C659.883 128.318 686.658 99.2878 724.873 99.2878C745.563 99.2878 758.707 105.387 769.66 114.413C772.095 116.608 772.581 120.268 770.391 122.951L760.411 134.417C758.464 136.856 754.812 137.1 752.378 135.149C744.102 128.562 735.34 124.659 724.63 124.659C703.696 124.659 688.362 142.223 688.362 163.691V165.643C688.362 186.134 704.67 203.455 725.116 203.211C737.044 202.967 745.076 198.82 753.352 191.989C755.786 190.038 759.194 190.282 761.141 192.477L770.634 201.991C773.068 204.431 772.825 208.334 770.391 210.53C758.707 221.751 745.076 228.582 723.656 228.582C687.145 228.582 659.883 200.04 659.883 164.179Z" fill="white"/>
  <path d="M798.626 101.483H880.655C884.063 101.483 886.74 104.167 886.74 107.582V120.024C886.74 123.439 884.063 126.122 880.655 126.122H819.803V151.249H872.623C876.03 151.249 878.708 153.933 878.708 157.348V169.79C878.708 173.205 876.03 175.889 872.623 175.889H819.803V202.235H881.385C884.793 202.235 887.471 204.919 887.471 208.334V220.776C887.471 224.191 884.793 226.874 881.385 226.874H798.383C794.975 226.874 792.297 224.191 792.297 220.776V107.338C792.541 104.167 795.218 101.483 798.626 101.483Z" fill="white"/>
  <path d="M913.515 101.483H929.824C931.771 101.483 933.475 102.459 934.448 103.923L991.163 178.572V107.338C991.163 103.923 993.84 101.483 997.005 101.483H1012.1C1015.5 101.483 1017.94 104.167 1017.94 107.338V220.288C1017.94 223.703 1015.26 226.143 1012.1 226.143H997.978C996.031 226.143 994.327 225.167 993.354 223.703L934.692 146.614V220.044C934.692 223.459 932.014 225.899 928.85 225.899H913.759C910.351 225.899 907.917 223.215 907.917 220.044V107.338C907.43 104.167 910.107 101.483 913.515 101.483Z" fill="white"/>
  <path d="M1072.71 126.61H1039.84C1036.92 126.61 1034.73 124.171 1034.73 121.487V106.606C1034.73 103.679 1037.17 101.483 1039.84 101.483H1132.83C1135.75 101.483 1137.94 103.923 1137.94 106.606V121.487C1137.94 124.415 1135.5 126.61 1132.83 126.61H1100.21V221.02C1100.21 223.947 1097.78 226.143 1095.1 226.143H1078.06C1075.14 226.143 1072.95 223.703 1072.95 221.02V126.61H1072.71Z" fill="white"/>
  <path d="M1160.33 101.483H1243.33C1246.5 101.483 1248.93 103.923 1248.93 107.094V120.512C1248.93 123.683 1246.5 126.122 1243.33 126.122H1182V151.249H1235.3C1238.47 151.249 1240.9 153.689 1240.9 156.86V170.278C1240.9 173.449 1238.47 175.889 1235.3 175.889H1182V202.235H1244.06C1247.23 202.235 1249.66 204.675 1249.66 207.846V221.263C1249.66 224.435 1247.23 226.874 1244.06 226.874H1160.33C1157.17 226.874 1154.73 224.435 1154.73 221.263V106.85C1154.73 103.923 1157.17 101.483 1160.33 101.483Z" fill="white"/>
  <path d="M1269.62 106.606C1269.62 103.679 1271.81 101.483 1274.73 101.483H1326.58C1342.4 101.483 1354.82 105.874 1362.85 114.169C1369.91 121.243 1373.56 131.001 1373.56 142.711V142.955C1373.56 163.203 1362.61 175.889 1346.78 181.743L1371.86 218.336C1374.29 221.751 1371.86 226.386 1367.72 226.386H1348.24C1346.54 226.386 1344.84 225.411 1343.86 224.191L1318.55 186.378H1296.89V221.263C1296.89 224.191 1294.69 226.386 1291.77 226.386H1274.49C1271.57 226.386 1269.38 224.191 1269.38 221.263V106.606H1269.62ZM1324.88 161.983C1338.26 161.983 1345.81 154.909 1345.81 144.419V143.931C1345.81 132.221 1337.53 126.122 1324.15 126.122H1296.89V161.983H1324.88Z" fill="white"/>
  <path d="M217.121 212.725V213.945C217.364 216.385 218.581 218.336 220.529 219.8L229.292 226.387C233.186 229.314 238.784 228.582 241.705 224.679C256.31 204.919 264.099 181.744 264.099 157.592C264.099 133.441 256.553 109.778 241.949 90.2618C239.028 86.3586 233.429 85.6267 229.535 88.5541L220.772 95.1408C218.825 96.6045 217.608 98.5561 217.364 100.996V102.215C217.364 104.167 218.095 105.875 219.068 107.582C230.022 122.219 235.864 139.54 235.864 157.592C235.864 175.645 230.022 192.965 219.068 207.602C217.851 208.822 217.121 210.774 217.121 212.725Z" fill="white"/>
  <path d="M180.61 186.134V187.354C180.853 189.55 182.314 191.745 184.017 193.209L191.076 198.332C194.971 201.259 200.569 200.528 203.49 196.624C220.042 174.425 220.042 140.272 203.49 118.072C200.569 114.169 194.971 113.437 191.076 116.364L184.017 121.487C182.07 122.951 180.853 124.903 180.61 127.342V128.562C180.61 130.514 181.34 132.465 182.314 133.929C192.293 147.102 192.293 167.594 182.314 181.011C181.34 182.475 180.61 184.183 180.61 186.134Z" fill="white"/>
  <path d="M258.014 246.147C254.363 242.487 248.278 242.487 244.626 246.147C221.016 269.81 189.616 282.739 156.512 282.739C87.6274 282.495 31.6432 226.387 31.6432 157.348C31.6432 88.31 87.6274 32.2012 156.512 32.2012C189.616 32.2012 221.016 45.1306 244.626 68.7939C248.278 72.4532 254.363 72.4532 258.014 68.7939L266.29 60.4996C269.941 56.8403 269.941 50.4976 266.29 47.0822C236.837 17.5641 197.892 1.46332 156.512 1.46332C70.5887 1.46332 0.973633 71.2334 0.973633 157.348C0.973633 243.463 70.8321 313.233 156.512 313.233C197.892 313.233 236.837 297.132 266.29 267.858C269.941 264.199 269.941 257.856 266.29 254.441L258.014 246.147Z" fill="white"/>
  <path d="M155.539 171.986C163.604 171.986 170.143 165.432 170.143 157.349C170.143 149.265 163.604 142.711 155.539 142.711C147.473 142.711 140.934 149.265 140.934 157.349C140.934 165.432 147.473 171.986 155.539 171.986Z" fill="white"/>
  </g>
  <defs>
  <clipPath id="clip0">
  <rect width="1375.26" height="312.258" fill="white"/>
  </clipPath>
  </defs>
  </svg>